<?xml version="1.0" standalone="no"?>
<!DOCTYPE svg PUBLIC "-//W3C//DTD SVG 20010904//EN"
 "http://www.w3.org/TR/2001/REC-SVG-20010904/DTD/svg10.dtd">
<svg version="1.0" xmlns="http://www.w3.org/2000/svg"
 width="1104.000000pt" height="1104.000000pt" viewBox="0 0 1104.000000 1104.000000"
 preserveAspectRatio="xMidYMid meet">
<metadata>
Created by potrace 1.14, written by Peter Selinger 2001-2017
</metadata>
<g transform="translate(0.000000,1104.000000) scale(0.100000,-0.100000)"
fill="#000000" stroke="none">
<path d="M4857 9913 c3 -125 12 -382 18 -563 3 -85 8 -225 10 -309 3 -85 7
-157 9 -159 3 -2 28 -4 58 -5 l53 -1 -3 150 c-3 185 -3 196 3 202 5 5 61 8
294 15 l84 2 41 -51 c22 -28 52 -66 66 -84 14 -18 50 -66 80 -106 30 -40 62
-82 70 -93 12 -18 23 -20 77 -18 35 1 63 4 63 6 0 3 -63 91 -83 116 -4 6 -48
64 -97 129 -65 87 -86 122 -77 128 6 5 29 18 49 28 57 31 117 95 146 158 24
50 27 69 27 162 0 94 -3 111 -27 161 -50 101 -120 157 -246 199 -47 16 -94 18
-336 20 l-282 1 3 -88z m614 -50 c105 -49 153 -125 152 -244 0 -116 -43 -189
-140 -239 -23 -12 -50 -23 -60 -25 -10 -2 -18 -4 -18 -5 0 -6 -53 -11 -135
-14 -225 -8 -261 -9 -268 -2 -4 4 -8 29 -9 54 -1 26 -4 133 -8 237 -3 105 -7
206 -8 225 l-2 35 70 3 c39 1 74 4 78 5 4 1 70 2 145 2 132 -1 139 -2 203 -32z"/>
<path d="M6060 9992 c0 -6 67 -169 90 -217 5 -11 19 -45 31 -75 11 -30 27 -71
36 -90 8 -19 19 -44 23 -55 4 -11 17 -40 28 -65 56 -129 116 -287 115 -305 -1
-26 -11 -93 -18 -125 -3 -14 -8 -45 -11 -70 -3 -25 -7 -52 -9 -60 -2 -8 -7
-36 -10 -61 l-6 -46 47 -7 c73 -10 71 -11 79 50 4 31 9 68 12 83 2 14 6 42 8
61 2 19 4 35 5 35 2 0 7 28 14 85 6 47 14 64 54 111 26 31 65 78 87 104 22 27
49 58 60 70 11 11 36 40 56 65 20 25 47 56 59 70 12 14 39 45 60 70 21 25 47
55 57 66 10 12 36 43 58 70 22 26 46 54 54 61 19 19 4 29 -57 38 -38 6 -46 4
-59 -15 -9 -12 -30 -39 -48 -59 -18 -20 -66 -74 -105 -121 -40 -47 -82 -96
-94 -110 -11 -14 -43 -52 -71 -85 -27 -33 -63 -75 -80 -93 -16 -19 -34 -40
-38 -48 -4 -8 -12 -14 -17 -14 -9 0 -38 57 -44 85 -1 6 -13 30 -26 55 -12 25
-22 45 -21 45 4 0 -73 191 -104 260 -7 17 -26 62 -41 100 -15 39 -31 74 -35
80 -5 5 -9 17 -9 26 0 13 -12 19 -47 25 -27 3 -56 8 -65 10 -10 1 -18 0 -18
-4z"/>
<path d="M4225 9898 c-38 -10 -79 -20 -90 -22 -25 -6 -416 -96 -430 -100 -16
-5 -89 -20 -97 -21 -3 0 -9 -3 -13 -7 -4 -4 -13 -4 -21 -1 -13 5 -19 -9 -14
-32 1 -5 9 -37 17 -70 8 -33 16 -69 18 -80 3 -11 9 -40 15 -65 6 -25 13 -56
16 -70 3 -14 12 -52 21 -85 8 -33 17 -69 19 -80 2 -11 6 -29 9 -40 4 -17 28
-124 40 -176 2 -9 8 -34 14 -55 6 -21 8 -40 6 -43 -3 -2 -1 -9 4 -15 5 -6 11
-24 14 -41 3 -16 10 -52 17 -80 6 -27 13 -57 15 -65 10 -50 27 -100 33 -100 4
0 43 9 86 20 44 11 91 23 105 26 37 7 56 12 56 14 0 1 9 3 20 5 32 6 89 18
100 21 6 2 89 21 185 44 225 53 209 47 204 73 -10 56 -14 70 -17 74 -3 2 -112
-21 -243 -52 -132 -31 -250 -58 -264 -61 -14 -3 -33 -7 -42 -10 -27 -8 -71
-17 -93 -18 -19 -1 -34 38 -60 159 -3 11 -14 58 -25 105 -11 47 -22 95 -25
106 -3 14 1 24 11 28 12 5 153 39 294 71 8 2 38 9 65 15 28 6 59 13 70 16 74
14 115 28 115 37 0 7 -5 29 -11 50 -12 44 -7 44 -164 4 -33 -9 -73 -19 -90
-22 -16 -3 -34 -7 -40 -9 -5 -1 -28 -7 -50 -11 -55 -12 -55 -12 -57 -15 -2 -1
-10 -3 -18 -5 -8 -2 -44 -10 -80 -18 -35 -9 -68 -14 -71 -11 -6 4 -22 63 -25
94 -1 8 -4 22 -7 30 -8 18 -46 181 -53 228 -4 19 -1 32 5 33 6 1 14 2 19 3 4
1 25 6 47 11 22 5 42 9 45 10 3 0 28 7 56 14 29 7 58 14 65 15 8 2 25 6 39 9
41 11 203 49 225 53 123 24 126 26 121 58 -8 51 -12 65 -17 69 -2 1 -35 -5
-74 -15z"/>
<path d="M8045 9470 c-22 -55 -43 -100 -47 -100 -3 0 -17 17 -29 38 -13 20
-31 46 -41 56 -10 11 -18 24 -18 28 0 5 -8 18 -19 29 l-19 20 -27 -24 -28 -24
29 -39 c16 -21 31 -41 34 -44 17 -17 71 -92 69 -95 -2 -1 -31 -6 -64 -9 -97
-11 -150 -18 -153 -21 -3 -3 -6 -44 -3 -62 1 -13 40 -10 184 13 28 4 37 2 37
-8 0 -8 -3 -18 -7 -22 -5 -4 -8 -11 -9 -14 -1 -8 -8 -26 -41 -101 -22 -51 -22
-54 -6 -67 10 -8 26 -13 36 -11 17 2 26 18 72 132 5 11 7 23 7 28 -1 4 3 7 8
7 6 0 9 3 9 8 -6 35 5 25 84 -81 49 -65 61 -76 76 -68 46 25 46 37 -6 103 -28
35 -58 76 -69 92 l-18 29 27 -5 c15 -3 27 -2 27 1 0 3 17 7 38 8 68 4 116 13
122 23 4 6 5 21 4 33 -1 12 -3 25 -3 30 -1 4 -13 5 -28 3 -33 -6 -92 -14 -145
-20 -21 -3 -40 -1 -43 4 -5 8 25 96 44 130 5 9 12 30 15 47 6 28 4 32 -25 42
-18 6 -32 11 -33 11 -1 0 -19 -45 -41 -100z"/>
<path d="M2498 9324 c-43 -21 -47 -26 -39 -47 10 -26 52 -119 243 -537 44 -96
102 -223 128 -282 84 -186 79 -178 103 -169 20 8 99 43 202 91 22 10 55 24 73
32 17 7 32 16 32 19 0 3 6 6 13 6 6 0 53 20 102 43 50 24 123 58 162 76 l73
33 -13 28 c-30 70 -14 72 -232 -28 -110 -49 -220 -99 -245 -110 -25 -12 -62
-29 -82 -39 -33 -17 -38 -17 -50 -3 -7 9 -11 17 -9 17 2 1 -3 17 -12 36 -113
244 -164 360 -159 365 3 3 0 5 -6 5 -7 0 -12 4 -12 9 0 5 -14 40 -31 78 -17
37 -30 70 -31 73 0 3 -3 10 -8 15 -4 6 -36 73 -70 150 -35 77 -68 145 -74 151
-8 8 -24 4 -58 -12z"/>
<path d="M9121 8753 c-36 -14 -70 -38 -96 -67 -47 -52 -60 -68 -63 -78 -1 -5
-2 -9 -3 -10 -18 -59 -12 -142 13 -201 24 -58 69 -129 141 -227 123 -166 150
-255 98 -327 -16 -22 -41 -47 -57 -58 -40 -27 -133 -25 -198 4 -76 34 -182
128 -231 205 -10 17 -23 34 -28 37 -5 3 -8 8 -7 10 1 2 -4 18 -11 34 -6 17
-17 49 -23 73 -6 24 -15 43 -19 44 -4 0 -26 -7 -48 -16 -35 -14 -39 -19 -34
-43 4 -16 7 -35 9 -43 3 -21 24 -72 36 -90 6 -8 13 -22 17 -30 44 -99 184
-236 293 -287 45 -21 125 -46 145 -46 95 2 163 30 226 93 56 56 79 117 73 195
-5 73 -38 141 -132 273 -132 183 -150 217 -156 287 -7 68 51 146 121 164 48
12 120 5 150 -14 13 -9 23 -13 23 -10 0 12 93 -59 141 -106 54 -54 91 -109
116 -171 9 -24 17 -44 18 -46 1 -1 23 9 48 23 l46 26 -25 57 c-45 103 -101
172 -215 267 -32 27 -114 69 -164 85 -65 21 -140 19 -204 -7z"/>
<path d="M1483 8666 l-42 -33 26 -39 c15 -21 29 -41 33 -44 3 -3 41 -52 84
-110 42 -58 86 -116 96 -130 10 -14 51 -68 90 -120 39 -52 80 -106 91 -120 11
-14 70 -93 132 -177 62 -84 115 -152 119 -153 3 0 44 28 90 63 46 34 94 70
108 79 14 10 89 66 167 125 78 59 151 115 163 123 12 8 32 24 46 34 l24 19
-27 36 c-14 20 -28 37 -29 39 -3 4 -47 -19 -54 -28 -3 -4 -50 -40 -105 -81
-55 -40 -104 -77 -110 -82 -18 -15 -163 -122 -185 -137 -12 -8 -28 -20 -35
-27 -18 -17 -27 -7 -126 127 -46 63 -88 120 -94 127 -5 6 -99 131 -208 277
-109 146 -202 266 -205 265 -4 0 -26 -15 -49 -33z"/>
<path d="M10047 8084 c-42 -28 -43 -48 -5 -88 10 -12 33 -43 51 -71 17 -27 34
-52 37 -55 3 -3 27 -35 53 -72 l47 -66 -33 -21 c-18 -11 -43 -28 -55 -38 -12
-10 -43 -33 -70 -51 -26 -18 -94 -66 -152 -107 -58 -41 -112 -79 -120 -85 -8
-5 -59 -42 -113 -80 -53 -39 -102 -70 -107 -70 -6 0 -10 -4 -10 -8 0 -4 -36
-32 -80 -62 -45 -29 -83 -57 -86 -61 -6 -10 13 -44 42 -77 l21 -23 169 117
c93 65 171 121 174 124 3 4 12 10 20 13 8 4 116 79 240 166 244 173 228 166
268 105 23 -36 47 -70 116 -166 l68 -97 39 26 c41 27 47 43 26 65 -7 7 -37 49
-67 93 -30 44 -57 82 -61 85 -3 3 -19 26 -36 52 -39 58 -76 111 -83 118 -3 3
-9 12 -15 21 -11 18 -86 128 -97 144 -4 6 -18 24 -30 40 -13 17 -39 53 -58 80
-19 28 -38 52 -42 53 -5 2 -6 8 -2 13 10 16 -11 9 -49 -17z"/>
<path d="M702 7845 c-18 -25 -32 -48 -32 -50 0 -4 43 -83 138 -255 41 -74 82
-151 119 -220 19 -36 38 -69 43 -75 4 -5 23 -39 42 -75 48 -89 111 -206 140
-260 14 -25 40 -72 58 -105 49 -92 50 -92 89 -35 l33 49 -32 58 c-18 32 -47
83 -63 113 -17 30 -38 66 -48 80 -16 24 -16 27 4 55 27 39 129 177 140 190 5
6 54 71 109 145 61 82 107 135 117 134 16 -1 55 -8 101 -18 220 -47 201 -45
219 -24 9 11 24 29 34 40 9 12 17 26 17 33 0 11 -122 44 -170 47 -8 0 -40 7
-70 14 -30 8 -66 17 -80 19 -40 8 -56 11 -235 50 -93 20 -179 38 -190 40 -34
6 -78 16 -115 25 -19 5 -46 11 -60 14 -14 2 -79 16 -145 30 -66 14 -123 26
-126 26 -3 0 -20 -20 -37 -45z m206 -101 c63 -15 81 -18 135 -28 12 -2 63 -14
112 -25 173 -42 210 -50 245 -56 19 -3 35 -7 36 -8 3 -2 -129 -182 -157 -215
-10 -12 -19 -26 -19 -31 0 -5 -3 -11 -8 -13 -4 -1 -32 -37 -62 -78 -30 -41
-59 -78 -64 -82 -5 -3 -35 39 -66 95 -31 56 -69 125 -85 152 -15 28 -38 68
-50 90 -81 149 -99 181 -106 190 -15 16 -10 38 7 31 8 -3 45 -13 82 -22z"/>
<path d="M5888 7480 c-34 -16 -51 -32 -103 -93 -31 -36 -117 -134 -150 -172
-16 -18 -39 -44 -50 -57 -48 -57 -122 -142 -140 -162 -11 -11 -61 -68 -110
-126 -109 -127 -141 -163 -180 -205 -16 -18 -42 -48 -57 -67 -15 -19 -40 -48
-55 -64 -30 -33 -33 -36 -177 -204 -55 -63 -109 -124 -120 -136 -12 -12 -32
-34 -45 -50 -65 -77 -128 -150 -146 -170 -11 -11 -31 -34 -45 -50 -14 -16 -68
-78 -120 -139 -52 -60 -106 -123 -120 -139 -14 -16 -36 -42 -50 -57 -34 -37
-66 -73 -130 -149 -30 -36 -62 -72 -70 -80 -9 -8 -28 -31 -44 -50 -16 -19 -52
-62 -82 -95 -137 -155 -113 -141 -249 -149 -44 -3 -114 -8 -155 -11 -41 -3
-111 -7 -154 -10 -73 -3 -103 -15 -90 -36 2 -4 6 -24 10 -45 3 -20 10 -49 16
-63 5 -14 9 -28 9 -31 -1 -3 6 -30 15 -60 9 -30 18 -62 19 -71 4 -22 36 -59
51 -59 6 0 17 -7 24 -15 10 -13 -3 -32 -81 -122 -52 -60 -108 -124 -126 -143
-17 -19 -42 -48 -55 -65 -12 -16 -34 -41 -48 -55 -14 -15 -47 -53 -75 -85 -27
-32 -56 -65 -64 -73 -12 -12 -10 -17 11 -39 l25 -25 30 29 c16 15 74 69 128
118 54 50 114 106 135 125 36 33 164 151 260 239 l45 41 70 -7 c138 -14 582
-7 695 12 14 2 54 6 90 10 36 4 79 8 95 11 17 2 48 6 70 9 22 2 56 7 75 10 19
3 51 8 70 10 19 2 76 12 125 20 50 9 101 18 115 20 14 2 25 4 25 5 0 1 11 3
25 4 30 4 67 11 180 36 47 10 99 21 115 24 37 6 35 6 225 51 85 21 162 39 170
40 8 2 15 4 15 5 0 1 172 49 202 55 12 3 102 30 200 59 624 190 1146 428 1402
641 63 52 149 145 166 181 20 41 27 175 13 259 -14 77 -82 295 -93 295 -3 0
-174 -114 -190 -127 -5 -5 -28 -20 -50 -33 -22 -13 -46 -30 -53 -37 -7 -7 -18
-13 -23 -13 -5 0 -15 -5 -22 -11 -20 -17 -277 -168 -277 -162 0 3 -6 0 -13 -6
-12 -10 -70 -41 -192 -103 -22 -11 -53 -28 -70 -36 -54 -28 -59 -30 -135 -65
-152 -71 -359 -156 -515 -211 -153 -55 -167 -60 -190 -66 -5 -2 -41 -14 -80
-27 -38 -13 -104 -33 -145 -44 -99 -27 -249 -66 -280 -73 -14 -3 -63 -15 -110
-26 -47 -11 -96 -23 -110 -26 -14 -3 -33 -7 -42 -10 -10 -3 -30 -7 -45 -10
-28 -4 -56 -10 -103 -20 -14 -2 -36 -7 -50 -9 -14 -3 -61 -12 -105 -20 -44 -9
-91 -17 -105 -20 -25 -4 -193 -32 -240 -41 -14 -2 -47 -7 -75 -10 -27 -3 -58
-8 -69 -11 -10 -3 -35 -7 -55 -9 -20 -2 -57 -5 -83 -8 -26 -2 -52 -7 -58 -11
-5 -3 -10 -2 -10 2 0 5 39 45 87 88 82 76 160 148 243 225 20 19 84 78 140
130 57 52 126 116 154 143 61 57 94 61 154 17 85 -61 97 -56 247 115 33 37 71
80 85 95 14 15 52 58 85 95 76 87 136 154 155 175 8 8 44 49 80 90 36 40 72
81 80 90 8 9 49 54 90 100 41 46 86 95 98 109 13 14 47 53 75 85 29 33 57 64
63 70 5 6 34 38 63 71 30 33 68 76 85 95 17 19 63 71 101 115 39 44 73 82 76
85 16 13 26 49 25 85 -2 39 -23 95 -36 95 -3 0 -15 8 -26 18 -10 9 -46 37 -79
61 -33 25 -62 48 -65 51 -3 3 -26 21 -52 38 -58 40 -118 48 -170 22z m-2085
-2574 c55 -48 50 -130 -10 -167 -91 -57 -201 46 -149 140 29 52 113 66 159 27z"/>
<path d="M10320 6804 c-182 -35 -322 -131 -406 -281 -60 -108 -84 -272 -57
-393 7 -30 15 -64 17 -75 6 -31 46 -118 61 -135 7 -8 14 -19 14 -23 0 -19 80
-106 132 -144 98 -74 189 -104 319 -109 322 -10 586 229 592 536 8 401 -306
693 -672 624z m238 -123 c199 -54 336 -256 327 -482 -5 -128 -47 -223 -135
-308 -92 -89 -206 -129 -352 -126 -88 2 -104 6 -171 37 -197 94 -305 318 -262
543 10 54 69 162 113 208 35 36 107 85 126 85 5 0 12 5 16 11 3 6 16 14 28 16
12 3 32 7 45 10 100 25 187 26 265 6z"/>
<path d="M244 6791 c-103 -63 -197 -223 -230 -391 -12 -62 -10 -193 3 -254 81
-353 487 -536 816 -369 54 27 58 30 123 88 164 146 232 425 162 660 -13 43
-45 96 -56 93 -4 -1 -41 6 -82 15 -41 10 -85 19 -98 22 -13 2 -32 7 -42 10
-21 7 -54 14 -90 20 -14 2 -40 7 -57 11 -25 5 -33 3 -34 -7 -1 -17 -6 -45 -13
-74 -5 -21 4 -24 170 -66 189 -47 194 -49 198 -70 2 -8 7 -23 12 -34 5 -11 8
-69 8 -130 0 -89 -5 -122 -23 -174 -74 -204 -246 -325 -447 -315 -64 3 -183
37 -223 62 -110 71 -199 188 -216 284 -3 17 -8 35 -11 39 -6 11 -6 130 1 159
3 14 8 36 10 50 14 88 72 188 151 257 l54 48 -28 42 -28 42 -30 -18z"/>
<path d="M9945 5278 c-30 -94 -30 -94 33 -109 32 -7 62 -14 67 -15 6 0 17 -3
25 -7 21 -7 100 -28 126 -32 12 -1 31 -8 42 -14 18 -9 20 -16 12 -36 -5 -14
-12 -37 -15 -50 -3 -14 -7 -37 -10 -52 -3 -14 -10 -34 -16 -45 -5 -10 -8 -18
-5 -18 2 0 -3 -21 -11 -47 -13 -44 -21 -77 -27 -111 -3 -19 -16 -27 -76 -50
-30 -12 -68 -27 -85 -33 -16 -7 -32 -13 -35 -13 -3 -1 -50 -19 -105 -40 -98
-38 -119 -50 -121 -64 0 -4 -6 -25 -12 -46 -6 -22 -9 -42 -7 -45 3 -2 20 0 38
6 104 34 195 67 218 79 14 7 36 15 50 18 13 3 45 13 71 23 26 10 50 14 53 11
4 -4 9 -24 11 -44 7 -76 68 -171 144 -227 70 -51 218 -83 300 -64 33 7 95 30
109 41 36 26 141 140 141 152 0 8 5 14 10 14 6 0 10 6 10 13 0 8 7 28 16 45 8
17 17 43 20 57 2 13 9 36 14 50 5 14 7 25 5 25 -2 0 0 12 6 28 17 45 89 326
84 330 -3 4 -103 34 -157 48 -43 10 -59 14 -79 19 -12 2 -45 11 -73 19 -49 14
-241 66 -261 70 -5 2 -30 8 -55 15 -25 7 -52 15 -60 16 -8 2 -40 11 -70 20
-30 8 -66 18 -80 21 -21 4 -172 45 -221 60 -11 3 -19 -3 -24 -18z m510 -238
c22 -5 99 -26 170 -46 72 -19 141 -37 155 -40 21 -4 58 -14 107 -29 9 -3 9
-13 2 -41 -6 -20 -12 -44 -15 -53 -5 -21 -18 -72 -39 -146 -9 -33 -19 -71 -21
-85 -8 -39 -55 -119 -94 -158 -107 -107 -285 -97 -399 22 -19 20 -31 36 -27
36 5 0 3 6 -3 14 -29 34 -37 180 -15 252 9 27 17 56 19 65 8 36 58 225 61 231
2 3 16 2 32 -2 15 -5 45 -14 67 -20z"/>
<path d="M356 4701 c-6 -20 -14 -65 -22 -116 -3 -22 -7 -47 -9 -54 -4 -28 -20
-21 -75 30 -30 28 -66 59 -80 69 -25 18 -26 18 -48 -7 -26 -29 -27 -39 -8 -50
7 -4 37 -28 66 -53 29 -25 60 -50 69 -57 23 -16 11 -24 -92 -60 -83 -28 -92
-34 -89 -55 5 -41 18 -42 120 -5 55 20 102 33 105 31 3 -3 1 -18 -4 -32 -14
-41 -37 -182 -30 -186 3 -2 21 -7 39 -11 25 -5 32 -3 33 9 1 9 2 19 3 24 4 13
16 86 22 127 3 22 9 43 13 48 4 4 43 -26 86 -67 44 -40 84 -72 90 -69 5 2 18
14 27 27 17 24 17 25 -30 63 -89 72 -128 113 -109 113 9 0 17 4 17 8 0 4 10 9
22 9 13 1 32 6 43 11 11 6 41 17 66 26 l47 17 -11 35 c-11 36 -20 37 -72 14
-11 -5 -51 -20 -88 -34 -58 -20 -67 -21 -63 -7 3 9 8 32 11 51 3 19 10 59 15
89 14 76 14 76 -25 77 -24 1 -36 -4 -39 -15z"/>
<path d="M9470 4090 c-52 -71 -98 -129 -102 -130 -5 0 -8 -7 -8 -15 0 -8 -4
-15 -9 -15 -5 0 -18 -15 -29 -32 -11 -18 -27 -42 -36 -53 -9 -11 -56 -72 -105
-136 l-88 -116 38 -31 38 -32 33 36 c18 20 37 43 42 52 10 17 111 146 134 170
6 7 12 17 12 21 0 4 9 17 19 28 11 12 49 60 85 107 87 114 99 127 106 118 3
-5 70 -58 150 -118 79 -60 150 -113 157 -119 10 -8 5 -19 -20 -51 -17 -22 -43
-56 -57 -74 -14 -18 -45 -59 -70 -90 -25 -31 -56 -72 -70 -90 -14 -18 -48 -63
-76 -99 l-51 -66 31 -27 c39 -34 48 -35 72 -1 10 14 26 33 34 42 9 9 31 39 50
66 19 27 42 57 50 67 8 9 53 69 100 132 47 63 88 115 91 116 5 0 168 -117 179
-130 3 -3 32 -25 65 -49 33 -25 63 -49 66 -54 4 -5 -16 -40 -45 -76 -28 -37
-60 -80 -71 -95 -11 -16 -25 -33 -30 -40 -6 -6 -33 -41 -60 -78 -27 -38 -52
-68 -57 -68 -4 0 -8 -4 -8 -10 0 -5 -25 -42 -55 -81 l-55 -71 36 -29 c20 -16
40 -29 44 -29 4 0 52 60 106 132 100 134 120 161 139 182 6 6 22 27 35 46 13
19 27 37 30 40 3 3 17 21 30 40 14 19 28 40 32 45 5 6 22 28 38 50 16 22 35
46 41 53 6 7 9 17 7 21 -2 5 -50 44 -107 86 -58 43 -109 82 -115 87 -6 5 -47
36 -91 69 -44 34 -91 69 -105 80 -14 10 -47 36 -75 56 -59 44 -55 41 -127 98
-31 25 -59 45 -62 45 -3 0 -14 7 -23 16 -32 29 -175 134 -182 133 -3 0 -49
-58 -101 -129z"/>
<path d="M1541 3905 l-34 -34 156 -158 c86 -87 192 -196 237 -242 l81 -84
-148 -145 -148 -144 -202 208 -202 209 -39 -38 -39 -39 127 -131 c227 -233
260 -269 260 -280 0 -5 -59 -70 -132 -143 l-131 -133 -124 127 c-69 70 -169
173 -224 230 -55 56 -103 102 -107 102 -4 0 -22 -15 -39 -34 l-32 -33 92 -95
c51 -52 169 -174 262 -272 94 -97 174 -176 178 -176 4 0 79 69 165 154 86 84
209 204 272 266 208 202 360 352 360 355 0 2 -39 43 -86 92 -47 48 -170 175
-272 280 -103 106 -189 192 -192 192 -3 0 -20 -16 -39 -34z"/>
<path d="M2346 3158 c4 -57 13 -151 18 -193 9 -75 18 -160 20 -197 l2 -37 -70
1 c-39 0 -89 -4 -111 -10 -62 -18 -140 -71 -185 -129 -51 -64 -89 -182 -84
-257 4 -49 34 -146 45 -146 5 0 9 -7 9 -15 0 -25 131 -149 195 -185 33 -18 80
-44 105 -58 25 -14 74 -42 109 -64 34 -21 65 -38 67 -38 3 0 22 -11 44 -25 22
-14 44 -25 48 -25 5 0 17 18 27 40 10 22 22 40 27 40 4 0 8 4 8 10 0 5 20 44
45 86 25 41 45 77 45 79 0 2 21 39 48 82 26 43 58 99 72 126 14 26 28 47 32
47 5 0 8 5 8 11 0 7 20 45 45 87 25 41 45 78 45 83 0 5 5 9 10 9 6 0 10 9 10
19 0 11 4 21 8 23 8 3 122 194 125 211 3 13 -88 67 -99 58 -5 -3 -15 -17 -22
-31 -7 -14 -23 -43 -36 -65 -12 -22 -38 -67 -57 -101 -65 -116 -42 -114 -219
-13 -85 48 -161 92 -168 96 -7 4 -15 26 -17 48 -7 67 -15 147 -21 224 -3 41
-8 81 -9 90 -2 9 -4 30 -4 47 -1 26 -10 37 -56 68 -30 20 -56 36 -58 36 -2 0
-3 -15 -1 -32z m32 -541 c6 3 12 1 12 -4 0 -5 9 -9 20 -10 11 -1 54 -21 96
-45 42 -24 99 -56 128 -72 28 -16 75 -44 104 -63 l53 -33 -20 -28 c-10 -15
-59 -97 -109 -182 -49 -85 -99 -171 -111 -190 -12 -19 -24 -43 -27 -53 -8 -21
-27 -17 -92 23 -26 15 -92 54 -147 86 -164 94 -230 180 -227 295 1 31 7 69 13
85 7 16 12 32 11 36 -3 12 103 116 135 132 44 22 104 34 128 26 11 -4 26 -5
33 -3z"/>
<path d="M8950 2548 c-8 -13 -29 -56 -47 -97 -17 -40 -35 -76 -38 -80 -8 -7
-13 0 -77 103 l-48 75 -30 -15 c-16 -9 -30 -17 -30 -20 0 -2 11 -22 25 -44 14
-22 25 -44 25 -50 0 -5 4 -10 9 -10 5 0 16 -16 25 -35 9 -19 21 -37 26 -40 6
-3 10 -11 10 -16 0 -6 -5 -7 -10 -4 -11 7 -73 8 -165 3 -50 -3 -50 -3 -50 -38
0 -34 1 -35 37 -35 20 0 71 2 111 5 l75 5 -22 -40 c-11 -22 -24 -42 -27 -45
-11 -9 -59 -97 -59 -107 0 -11 58 -39 64 -32 2 2 25 46 50 97 26 50 50 92 54
92 4 0 31 -41 61 -89 56 -92 64 -97 103 -64 15 14 13 20 -28 81 -25 37 -47 75
-51 85 -3 9 -10 17 -15 17 -5 0 -6 4 -3 10 3 5 36 9 73 9 37 0 86 0 110 0 l43
1 -3 38 -3 37 -60 -1 c-33 -1 -81 -4 -107 -7 -27 -3 -48 -1 -48 4 0 11 33 82
41 89 4 3 18 28 32 56 l26 51 -27 14 c-15 7 -29 15 -32 16 -3 2 -12 -7 -20
-19z"/>
<path d="M7295 2545 c-180 -45 -292 -123 -381 -263 -2 -2 -45 19 -97 47 -95
51 -117 53 -117 11 0 -9 -5 -21 -12 -28 -15 -15 -9 -21 67 -62 113 -61 127
-71 120 -89 -10 -23 -30 -161 -29 -191 4 -71 1 -67 49 -68 29 -1 45 3 46 11 0
7 2 53 3 103 2 50 6 96 10 102 4 7 31 -3 75 -29 37 -21 72 -39 76 -39 5 0 16
-6 24 -14 14 -12 121 -72 178 -100 29 -14 29 -25 1 -56 -41 -45 -75 -94 -102
-149 -60 -118 -15 -259 99 -307 37 -15 145 -21 165 -9 6 3 23 9 38 11 27 5
108 49 127 68 131 138 124 262 -23 389 -17 15 -36 27 -42 27 -5 0 -10 5 -10
10 0 6 -6 10 -13 10 -7 0 -18 5 -25 12 -9 9 -3 19 23 44 19 18 35 37 35 42 0
5 7 15 15 22 23 19 82 130 91 170 29 133 -40 260 -168 308 -47 18 -180 28
-223 17z m138 -106 c80 -22 137 -106 137 -202 0 -48 -43 -132 -103 -201 l-43
-49 -59 32 c-33 18 -73 40 -90 50 -33 19 -139 78 -195 107 -19 11 -36 22 -38
27 -2 4 -9 7 -16 7 -7 0 -17 5 -23 11 -15 15 30 82 89 134 91 78 234 114 341
84z m65 -608 c82 -53 117 -107 116 -178 0 -50 -3 -57 -42 -92 -67 -62 -164
-80 -225 -42 -70 43 -81 137 -26 219 39 57 101 132 110 132 3 0 33 -18 67 -39z"/>
<path d="M3728 2495 c-2 -2 -23 -5 -48 -9 -46 -6 -83 -13 -87 -16 -2 -2 -6 -3
-10 -4 -5 -1 -37 -17 -73 -35 -77 -39 -182 -143 -228 -222 -149 -264 -74 -597
171 -753 47 -30 90 -53 117 -61 13 -4 97 -28 115 -32 48 -13 214 -11 267 3
147 38 255 117 340 248 21 33 38 63 38 67 0 4 5 20 11 36 6 15 10 28 9 28 -1
0 4 13 10 29 6 16 13 47 16 70 35 275 -115 511 -391 615 -56 21 -244 47 -257
36z m176 -116 c43 0 170 -72 226 -128 45 -44 98 -125 106 -161 0 -3 3 -12 7
-20 25 -64 28 -174 6 -262 -7 -29 -12 -56 -11 -60 1 -5 -2 -8 -6 -8 -5 0 -14
-16 -22 -35 -8 -19 -17 -35 -22 -35 -4 0 -8 -6 -8 -14 0 -22 -112 -120 -166
-146 -126 -59 -277 -64 -399 -13 -38 16 -81 38 -95 48 -57 45 -121 117 -143
162 -21 42 -28 61 -44 123 -10 40 -8 151 4 203 20 87 74 183 130 234 101 90
251 139 368 121 28 -5 58 -9 69 -9z"/>
<path d="M4791 2213 c-2 -32 -3 -156 -4 -275 -1 -120 -6 -218 -10 -218 -4 0
-3 -9 3 -20 6 -11 7 -20 3 -20 -4 0 -9 -119 -11 -265 l-2 -265 32 -1 c18 -1
40 -2 48 -3 14 -1 60 55 60 74 0 5 6 15 13 22 7 7 47 72 90 143 43 72 82 137
87 145 78 127 140 231 140 235 0 3 5 11 11 18 6 7 32 47 58 91 26 43 51 78 56
78 7 0 28 -33 83 -132 11 -19 61 -109 112 -200 51 -91 107 -190 124 -220 17
-31 58 -104 91 -163 l60 -107 47 0 c39 0 48 3 49 18 3 38 21 924 22 1025 0 37
-2 70 -5 72 -7 7 -97 9 -104 2 -6 -5 -12 -283 -17 -764 -1 -61 -5 -109 -8
-107 -4 2 -26 39 -50 82 -23 42 -51 93 -62 112 -11 19 -50 89 -87 155 -173
309 -213 379 -225 387 -23 17 -51 6 -74 -29 -30 -46 -237 -387 -263 -433 -11
-19 -33 -54 -49 -78 -16 -24 -29 -45 -29 -47 0 -2 -20 -36 -45 -77 l-46 -73 7
340 c3 187 7 388 8 448 l2 107 -56 0 -57 0 -2 -57z"/>
</g>
</svg>
